<?xml version="1.0" encoding="UTF-8" standalone="no"?>
<svg
   width="287.09683"
   zoomAndPan="magnify"
   viewBox="0 0 215.32262 125.55034"
   height="167.40045"
   preserveAspectRatio="xMidYMid"
   version="1.0"
   id="svg69"
   sodipodi:docname="logo.svg"
   xmlns:inkscape="http://www.inkscape.org/namespaces/inkscape"
   xmlns:sodipodi="http://sodipodi.sourceforge.net/DTD/sodipodi-0.dtd"
   xmlns="http://www.w3.org/2000/svg"
   xmlns:svg="http://www.w3.org/2000/svg">
  <sodipodi:namedview
     id="namedview69"
     pagecolor="#ffffff"
     bordercolor="#000000"
     borderopacity="0.25"
     inkscape:showpageshadow="2"
     inkscape:pageopacity="0.0"
     inkscape:pagecheckerboard="0"
     inkscape:deskcolor="#d1d1d1" />
  <defs
     id="defs2">
    <clipPath
       id="4ecda40e25">
      <path
         d="m 152.10156,183 h 70.5 v 9 h -70.5 z m 0,0"
         clip-rule="nonzero"
         id="path1" />
    </clipPath>
    <clipPath
       id="df71d288b4">
      <path
         d="m 152.10156,126.35547 h 70.5 v 63.30859 h -70.5 z m 0,0"
         clip-rule="nonzero"
         id="path2" />
    </clipPath>
  </defs>
  <g
     fill="#000000"
     fill-opacity="1"
     id="g5"
     transform="translate(-78.597655,-126.35595)">
    <g
       transform="translate(113.3002,232.73436)"
       id="g4">
      <g
         id="g3">
        <path
           d="M 4.5,-26.25 V 0 H 21.453125 V -2.0625 H 7.90625 v -10.984375 h 11.625 V -14.78125 H 7.90625 V -24.1875 H 21.453125 V -26.25 Z m 0,0"
           id="path3" />
      </g>
    </g>
  </g>
  <g
     fill="#000000"
     fill-opacity="1"
     id="g8"
     transform="translate(-78.597655,-126.35595)">
    <g
       transform="translate(143.00076,232.73436)"
       id="g7">
      <g
         id="g6">
        <path
           d="M 4.5,-26.25 V 0 h 3.40625 v -13.046875 h 11.625 V -14.78125 H 7.90625 V -24.1875 H 21.453125 V -26.25 Z m 0,0"
           id="path5" />
      </g>
    </g>
  </g>
  <g
     fill="#000000"
     fill-opacity="1"
     id="g11"
     transform="translate(-78.597655,-126.35595)">
    <g
       transform="translate(172.70133,232.73436)"
       id="g10">
      <g
         id="g9">
        <path
           d="M 4.5,-26.25 V 0 H 21.453125 V -2.0625 H 7.90625 v -10.984375 h 11.625 V -14.78125 H 7.90625 V -24.1875 H 21.453125 V -26.25 Z m 0,0"
           id="path8" />
      </g>
    </g>
  </g>
  <g
     fill="#000000"
     fill-opacity="1"
     id="g14"
     transform="translate(-78.597655,-126.35595)">
    <g
       transform="translate(202.40189,232.73436)"
       id="g13">
      <g
         id="g12">
        <path
           d="m 4.5,0 h 3.40625 v -9.21875 l 4.25,-4.546875 L 22.125,0 h 3.90625 L 14.328125,-16.09375 23.84375,-26.25 h -1.875 L 7.90625,-11.46875 V -26.25 H 4.5 Z m 0,0"
           id="path11" />
      </g>
    </g>
  </g>
  <g
     fill="#000000"
     fill-opacity="1"
     id="g17"
     transform="translate(-78.597655,-126.35595)">
    <g
       transform="translate(236.67745,232.73436)"
       id="g16">
      <g
         id="g15">
        <path
           d="M 14.21875,0 V -24.1875 H 24.265625 V -26.25 H 0.75 v 2.0625 H 10.796875 V 0 Z m 0,0"
           id="path14" />
      </g>
    </g>
  </g>
  <g
     fill="#000000"
     fill-opacity="1"
     id="g20"
     transform="translate(-78.597655,-126.35595)">
    <g
       transform="translate(116.73985,251.76567)"
       id="g19">
      <g
         id="g18">
        <path
           d="m 1.921875,0 v -3.171875 h 2.21875 c 1.578125,0 2.5,-1.09375 2.5,-2.40625 0,-1.296875 -0.890625,-2.40625 -2.5,-2.40625 H 0.9375 V 0 Z m 3.6875,-5.578125 c 0,0.890625 -0.640625,1.515625 -1.59375,1.515625 h -2.09375 v -3.03125 h 2.09375 c 0.953125,0 1.59375,0.625 1.59375,1.515625 z m 0,0"
           id="path17" />
      </g>
    </g>
  </g>
  <g
     fill="#000000"
     fill-opacity="1"
     id="g23"
     transform="translate(-78.597655,-126.35595)">
    <g
       transform="translate(127.34936,251.76567)"
       id="g22">
      <g
         id="g21">
        <path
           d="M 6.15625,0 V -0.890625 H 1.921875 v -2.75 h 4.15625 V -4.53125 h -4.15625 v -2.5625 H 6.15625 V -7.984375 H 0.9375 V 0 Z m 0,0"
           id="path20" />
      </g>
    </g>
  </g>
  <g
     fill="#000000"
     fill-opacity="1"
     id="g26"
     transform="translate(-78.597655,-126.35595)">
    <g
       transform="translate(137.74358,251.76567)"
       id="g25">
      <g
         id="g24">
        <path
           d="M 6.71875,0 4.578125,-3.25 c 1.078125,-0.09375 2.0625,-0.890625 2.0625,-2.328125 0,-1.46875 -1.046875,-2.40625 -2.5,-2.40625 H 0.9375 V 0 h 0.984375 v -3.171875 h 1.59375 L 5.546875,0 Z M 5.609375,-5.578125 c 0,0.890625 -0.640625,1.53125 -1.59375,1.53125 H 1.921875 V -7.09375 h 2.09375 c 0.953125,0 1.59375,0.625 1.59375,1.515625 z m 0,0"
           id="path23" />
      </g>
    </g>
  </g>
  <g
     fill="#000000"
     fill-opacity="1"
     id="g29"
     transform="translate(-78.597655,-126.35595)">
    <g
       transform="translate(148.60426,251.76567)"
       id="g28">
      <g
         id="g27">
        <path
           d="M 2.15625,-3.8125 3.3125,-4.484375 V -5.34375 L 2.15625,-4.6875 v -3.296875 h -1 v 3.875 L 0.125,-3.5 v 0.859375 L 1.15625,-3.25 V 0 H 5.859375 V -0.890625 H 2.15625 Z m 0,0"
           id="path26" />
      </g>
    </g>
  </g>
  <g
     fill="#000000"
     fill-opacity="1"
     id="g32"
     transform="translate(-78.597655,-126.35595)">
    <g
       transform="translate(158.52006,251.76567)"
       id="g31">
      <g
         id="g30">
        <path
           d="M 7.765625,0 4.546875,-7.984375 H 3.3125 L 0.109375,0 h 1.09375 l 0.71875,-1.765625 h 4.03125 L 6.671875,0 Z M 5.65625,-2.65625 H 2.203125 L 3.9375,-7.09375 Z m 0,0"
           id="path29" />
      </g>
    </g>
  </g>
  <g
     fill="#000000"
     fill-opacity="1"
     id="g38"
     transform="translate(-78.597655,-126.35595)">
    <g
       transform="translate(176.65329,251.76567)"
       id="g37">
      <g
         id="g36">
        <path
           d="m 8.109375,0 2.28125,-7.984375 H 9.28125 l -1.75,6.65625 -1.828125,-6.65625 H 4.875 l -1.828125,6.65625 -1.78125,-6.65625 H 0.171875 L 2.4375,0 H 3.515625 L 5.28125,-6.4375 7.03125,0 Z m 0,0"
           id="path35" />
      </g>
    </g>
  </g>
  <g
     fill="#000000"
     fill-opacity="1"
     id="g41"
     transform="translate(-78.597655,-126.35595)">
    <g
       transform="translate(190.80307,251.76567)"
       id="g40">
      <g
         id="g39">
        <path
           d="m 0.453125,-1.125 c 0.65625,0.734375 1.671875,1.265625 3.0625,1.265625 2.15625,0 2.953125,-1.1875 2.953125,-2.34375 0,-1.671875 -1.484375,-2.078125 -2.796875,-2.421875 -1.015625,-0.28125 -1.9375,-0.515625 -1.9375,-1.328125 0,-0.75 0.6875,-1.265625 1.640625,-1.265625 0.875,0 1.71875,0.296875 2.3125,0.953125 l 0.59375,-0.71875 c -0.671875,-0.71875 -1.609375,-1.125 -2.828125,-1.125 -1.578125,0 -2.75,0.90625 -2.75,2.21875 0,1.5625 1.421875,1.921875 2.703125,2.265625 1.0625,0.28125 2.03125,0.546875 2.03125,1.5 0,0.609375 -0.453125,1.390625 -1.875,1.390625 -1.140625,0 -2,-0.5625 -2.515625,-1.140625 z m 0,0"
           id="path38" />
      </g>
    </g>
  </g>
  <g
     fill="#000000"
     fill-opacity="1"
     id="g44"
     transform="translate(-78.597655,-126.35595)">
    <g
       transform="translate(201.40062,251.76567)"
       id="g43">
      <g
         id="g42">
        <path
           d="m 4.6875,0.140625 c 1.4375,0 2.390625,-0.671875 3.0625,-1.578125 L 6.90625,-1.90625 c -0.453125,0.6875 -1.28125,1.171875 -2.21875,1.171875 -1.71875,0 -3.046875,-1.359375 -3.046875,-3.25 0,-1.90625 1.328125,-3.25 3.046875,-3.25 0.9375,0 1.765625,0.5 2.21875,1.171875 L 7.75,-6.53125 C 7.109375,-7.4375 6.125,-8.109375 4.6875,-8.109375 c -2.265625,0 -4.078125,1.671875 -4.078125,4.125 0,2.453125 1.8125,4.125 4.078125,4.125 z m 0,0"
           id="path41" />
      </g>
    </g>
  </g>
  <g
     fill="#000000"
     fill-opacity="1"
     id="g47"
     transform="translate(-78.597655,-126.35595)">
    <g
       transform="translate(213.0746,251.76567)"
       id="g46">
      <g
         id="g45">
        <path
           d="m 7.59375,0 v -7.984375 h -1 v 3.4375 H 1.921875 v -3.4375 H 0.9375 V 0 H 1.921875 V -3.65625 H 6.59375 V 0 Z m 0,0"
           id="path44" />
      </g>
    </g>
  </g>
  <g
     fill="#000000"
     fill-opacity="1"
     id="g50"
     transform="translate(-78.597655,-126.35595)">
    <g
       transform="translate(225.17915,251.76567)"
       id="g49">
      <g
         id="g48">
        <path
           d="m 0.609375,-3.984375 c 0,2.359375 1.59375,4.125 3.96875,4.125 2.359375,0 3.953125,-1.765625 3.953125,-4.125 0,-2.359375 -1.59375,-4.125 -3.953125,-4.125 -2.375,0 -3.96875,1.765625 -3.96875,4.125 z m 6.890625,0 c 0,1.859375 -1.140625,3.25 -2.921875,3.25 -1.796875,0 -2.9375,-1.390625 -2.9375,-3.25 0,-1.875 1.140625,-3.25 2.9375,-3.25 1.78125,0 2.921875,1.375 2.921875,3.25 z m 0,0"
           id="path47" />
      </g>
    </g>
  </g>
  <g
     fill="#000000"
     fill-opacity="1"
     id="g53"
     transform="translate(-78.597655,-126.35595)">
    <g
       transform="translate(237.91761,251.76567)"
       id="g52">
      <g
         id="g51">
        <path
           d="M 3.65625,0 C 6.140625,0 7.75,-1.71875 7.75,-3.984375 c 0,-2.265625 -1.609375,-4 -4.09375,-4 H 0.9375 V 0 Z M 1.921875,-7.09375 H 3.65625 c 1.984375,0 3.0625,1.390625 3.0625,3.109375 0,1.703125 -1.125,3.09375 -3.0625,3.09375 H 1.921875 Z m 0,0"
           id="path50" />
      </g>
    </g>
  </g>
  <g
     fill="#000000"
     fill-opacity="1"
     id="g56"
     transform="translate(-78.597655,-126.35595)">
    <g
       transform="translate(249.87865,251.76567)"
       id="g55">
      <g
         id="g54">
        <path
           d="m 0.9375,-3.09375 c 0,1.953125 1.078125,3.234375 3.25,3.234375 2.171875,0 3.25,-1.265625 3.25,-3.25 v -4.875 H 6.453125 V -3.125 c 0,1.46875 -0.796875,2.390625 -2.265625,2.390625 -1.46875,0 -2.265625,-0.921875 -2.265625,-2.390625 V -7.984375 H 0.9375 Z m 0,0"
           id="path53" />
      </g>
    </g>
  </g>
  <path
     stroke-linecap="butt"
     fill="none"
     stroke-linejoin="miter"
     d="M 1.0046719e-6,67.01124 H 67.382818"
     stroke="#000000"
     stroke-width="1.5"
     stroke-opacity="1"
     stroke-miterlimit="4"
     id="path56" />
  <path
     stroke-linecap="butt"
     fill="none"
     stroke-linejoin="miter"
     d="M 1.0046719e-6,121.94483 H 32.937503"
     stroke="#424242"
     stroke-width="1.5"
     stroke-opacity="1"
     stroke-miterlimit="4"
     id="path57" />
  <path
     stroke-linecap="butt"
     fill="none"
     stroke-linejoin="miter"
     d="m 182.38672,121.94483 h 32.9336"
     stroke="#424242"
     stroke-width="1.5"
     stroke-opacity="1"
     stroke-miterlimit="4"
     id="path58" />
  <path
     stroke-linecap="butt"
     fill="none"
     stroke-linejoin="miter"
     d="m 152.22266,67.011241 63.0977,-0.191406"
     stroke="#000000"
     stroke-width="1.5"
     stroke-opacity="1"
     stroke-miterlimit="4"
     id="path59" />
  <path
     fill="#471257"
     d="m 117.55468,40.116709 c 5.17969,-5.62891 9.38672,-12.58985 12.48047,-21.14454 -0.22265,-0.27734 -0.44531,-0.55468 -0.66797,-0.83593 -0.22656,-0.27735 -0.47656,-0.55469 -0.69922,-0.83203 -2.95312,8.80078 -6.8789,16.09765 -11.5039,22.33984 0.14062,0.14062 0.25,0.30469 0.39062,0.47266"
     fill-opacity="1"
     fill-rule="nonzero"
     id="path60" />
  <path
     fill="#471257"
     d="m 119.61718,12.120609 c -0.39062,0.14063 -0.78125,0.25 -1.14453,0.39063 -0.33203,-0.33203 -0.66797,-0.66797 -1.0039,-1.03125 -0.97266,8.77734 -2.78516,16.99218 -5.03907,24.8789 0.082,0.0234 0.19532,0.0508 0.27735,0.0781 2.50781,-7.49219 4.875,-15.48438 6.91015,-24.31641"
     fill-opacity="1"
     fill-rule="nonzero"
     id="path61" />
  <path
     fill="#471257"
     d="m 119.58984,45.241709 c 0,0.14062 0.0273,0.30859 0.0273,0.44531 7.26953,-4.51172 13.20313,-10.64063 17.32422,-18.9961 -0.27734,-0.082 -0.55469,-0.19531 -0.83594,-0.30859 -0.10937,-0.27734 -0.25,-0.55469 -0.38671,-0.83594 -4.03907,8.21875 -9.64063,14.54297 -16.12891,19.69532"
     fill-opacity="1"
     fill-rule="nonzero"
     id="path62" />
  <g
     clip-path="url(#4ecda40e25)"
     id="g63"
     transform="translate(-78.597655,-126.35595)">
    <path
       fill="#471257"
       d="m 221.66797,183.57812 c -0.55469,0.30469 -1.25391,0.52735 -2.11719,0.69532 -0.86328,0.16406 -1.92187,0.25 -3.08984,0.25 h -0.0312 c -0.35938,0.0273 -0.64063,0.33203 -0.64063,0.66797 0.0273,0.33593 -0.41406,0.61328 -1.22265,0.86328 -1.0625,0.30859 -2.64844,0.5039 -4.59766,0.55859 -0.22266,0 -0.41797,0.10938 -0.52734,0.27734 -0.47657,0.64063 -1.83985,1.0586 -3.78907,1.28125 -2.11718,0.22266 -4.82031,0.25 -7.85547,0.14063 -0.0547,0 -0.14062,0 -0.19531,0.0273 -3.37109,1.03125 -6.74219,1.53125 -10.08594,1.53125 -3.36718,0 -6.73828,-0.5 -10.08203,-1.53125 -0.082,-0.0273 -0.16797,-0.0273 -0.25,-0.0273 -2.58984,0.10937 -4.875,0.0547 -6.85156,-0.22266 -1.95312,-0.28125 -3.59375,-0.7539 -4.98828,-1.39453 -0.0547,-0.0273 -0.16797,-0.0547 -0.25,-0.082 -1.61719,-0.11328 -3.09375,-0.28125 -4.20703,-0.58594 -0.94531,-0.25 -1.58594,-0.58593 -1.72656,-1.03125 -0.0547,-0.25 -0.27735,-0.44531 -0.5586,-0.47265 -1.30859,-0.0547 -2.53515,-0.16797 -3.45312,-0.36328 -0.83594,-0.14063 -1.42188,-0.33204 -1.58594,-0.5586 -0.22266,-0.27734 -0.64063,-0.33203 -0.92188,-0.10937 -0.27734,0.22265 -0.30468,0.64062 -0.082,0.92187 0.39063,0.5 1.22657,0.80469 2.33985,1.02735 0.91797,0.16796 2.03125,0.28125 3.23047,0.36328 0.41796,0.69531 1.28125,1.14062 2.42187,1.47656 1.17188,0.30469 2.70313,0.5 4.32031,0.61328 1.50391,0.69531 3.25782,1.16797 5.29297,1.44922 2.03125,0.30469 4.34375,0.38672 6.96094,0.25 3.45703,1.05859 6.91016,1.55859 10.39062,1.55859 3.45704,0 6.91016,-0.5 10.36329,-1.55859 3.03515,0.10937 5.79687,0.10937 7.91015,-0.14063 2.08985,-0.25 3.67969,-0.72265 4.48828,-1.55859 1.94922,-0.0859 3.53516,-0.28125 4.64844,-0.61328 1.08594,-0.33594 1.8125,-0.80859 2.0625,-1.47656 1.05859,-0.0273 1.97656,-0.11328 2.8125,-0.27735 0.97656,-0.16797 1.8125,-0.44531 2.48047,-0.80859 0.33594,-0.16797 0.44531,-0.55859 0.27734,-0.89063 -0.16797,-0.30859 -0.55859,-0.41796 -0.89062,-0.25"
       fill-opacity="1"
       fill-rule="nonzero"
       id="path63" />
  </g>
  <g
     clip-path="url(#df71d288b4)"
     id="g64"
     transform="translate(-78.597655,-126.35595)">
    <path
       fill="#471257"
       d="m 159.1875,151.29297 c -0.39063,-5.60156 2.70312,-7.30078 6.35156,-8.41406 1.22656,-6.37891 5.59766,-8.07813 11.89453,-6.82422 3.25782,-8.7461 16.87891,-8.71875 20.14063,0 6.29297,-1.25391 10.66797,0.44531 11.89453,6.82422 3.62109,1.11328 6.74219,2.8125 6.34766,8.41406 15.68359,3.78515 -6.65625,26.15234 -15.23438,26.48828 h -3.51172 c -0.75,1.42187 -1.78125,2.64453 -3.00781,3.59375 1.98047,0.36328 3.20703,0.86328 3.20703,1.42187 0,0.47266 -0.89453,0.89063 -2.42578,1.22266 0.75,1.3125 1.69922,2.42578 2.89844,3.26172 -0.3086,0.0547 -0.64063,0.082 -0.94922,0.13672 -0.83594,-0.83594 -1.50391,-1.97656 -2.08985,-3.36719 -1.78125,0.38672 -4.34375,0.61328 -7.21484,0.61328 -3.12109,0 -5.90234,-0.28125 -7.71484,-0.72656 -0.5586,1.39453 -1.28125,2.48047 -2.11719,3.48047 -0.33203,-0.0547 -0.64063,-0.082 -0.97266,-0.13672 1.08203,-1.00391 2.08594,-2.11719 2.89453,-3.39844 -1.16796,-0.30469 -1.86718,-0.69531 -1.86718,-1.08594 0,-0.55859 1.2539,-1.05859 3.23047,-1.42187 -1.25,-0.94922 -2.28125,-2.17188 -3.00782,-3.59375 h -3.50781 c -8.58203,-0.33594 -30.92187,-22.70313 -15.23828,-26.48828 z m 55.60156,32.17187 c -0.41797,0.13672 -0.86719,0.30469 -1.3125,0.44532 -5.17969,-0.33204 -9.60937,-1.97657 -14.03906,-3.64844 4.90234,1.42187 9.91797,2.69922 15.35156,3.20312 z m -8.55469,2.50782 c -4.12109,-0.97657 -6.99218,-2.75782 -9.71875,-4.57032 3.39454,1.83985 6.99219,3.39844 11.08594,4.28907 -0.44531,0.11328 -0.92187,0.19531 -1.36719,0.28125 z m -38.05078,0 c -0.44531,-0.0859 -0.89062,-0.16797 -1.36328,-0.28125 3.84375,-0.94532 7.54688,-2.39454 11.11328,-4.28907 -3.11718,2.14453 -6.32422,3.84375 -9.75,4.57032 z m -7.24218,-2.0625 c -0.41797,-0.14063 -0.86329,-0.3086 -1.3086,-0.44532 5.15235,-0.55859 10.28125,-1.61718 15.37891,-3.20312 -4.48828,1.7539 -9.11328,3.08984 -14.07031,3.64844 z m 13.17578,-5.57032 c -6.15625,0.0547 -19.21875,2.78516 -20.94532,4.76172 0.13672,0.0273 0.27735,0.0859 0.38672,0.22266 0.16797,0.22265 0.75391,0.41797 1.58985,0.55859 0.91797,0.19531 2.14453,0.30469 3.45312,0.36328 0.28125,0.0273 0.5,0.22266 0.5586,0.47266 0.13671,0.44531 0.77734,0.77734 1.72656,1.03125 1.11328,0.30469 2.58984,0.47266 4.20703,0.58203 0.082,0.0312 0.19531,0.0586 0.25,0.0859 1.39062,0.64062 3.03516,1.11328 4.98437,1.39062 1.98047,0.28125 4.26563,0.33594 6.85547,0.22657 0.082,0 0.16407,0 0.25,0.0234 3.34375,1.03125 6.71485,1.53516 10.08203,1.53516 3.34375,0 6.71485,-0.50391 10.08204,-1.53516 0.0586,-0.0234 0.14453,-0.0234 0.19921,-0.0234 3.03516,0.10937 5.73438,0.082 7.85547,-0.14063 1.94922,-0.22266 3.3125,-0.64062 3.78516,-1.28125 0.11328,-0.16797 0.30859,-0.28125 0.53125,-0.28125 1.94922,-0.0547 3.53516,-0.25 4.59375,-0.55469 0.80859,-0.25 1.25391,-0.53125 1.22656,-0.86328 0,-0.33594 0.28125,-0.64062 0.64063,-0.66797 h 0.0273 c 1.17188,0 2.23047,-0.0859 3.09375,-0.25 0.86328,-0.16797 1.5625,-0.39453 2.11719,-0.69922 0.082,-0.0273 0.16797,-0.0547 0.25,-0.082 -1.22656,-1.94922 -14.76172,-4.82031 -21.0586,-4.875 8.77344,-0.36328 32.67579,-24.20703 16.62891,-28.21875 0.39063,-5.96093 -2.92578,-7.77343 -6.62891,-8.96875 -1.2539,-6.76953 -5.71093,-8.58203 -12.17187,-7.24218 -3.31641,-10.0586 -19.05469,-10.08594 -22.36719,0 -6.46484,-1.33985 -10.92187,0.47265 -12.17578,7.24218 -3.73047,1.19532 -7.04687,3.00782 -6.62891,8.96875 -16.04296,4.01172 7.82813,27.85547 16.60157,28.21875"
       fill-opacity="1"
       fill-rule="nonzero"
       id="path64" />
  </g>
  <path
     fill="#471257"
     d="m 114.1289,40.421389 c 0.86328,0 1.5586,0.69532 1.5586,1.5625 0,0.83594 -0.69532,1.53125 -1.5586,1.53125 -0.86328,0 -1.55859,-0.69531 -1.55859,-1.53125 0,-0.86718 0.69531,-1.5625 1.55859,-1.5625 z m -15.570305,6.07422 c 0,5.71094 4.624995,10.33594 10.332025,10.33594 5.71094,0 10.33594,-4.625 10.33594,-10.33594 0,-5.68359 -4.625,-10.33594 -10.33594,-10.33594 -5.70703,0 -10.332025,4.65235 -10.332025,10.33594"
     fill-opacity="1"
     fill-rule="nonzero"
     id="path65" />
  <path
     fill="#471257"
     d="m 138.39062,59.726079 c -0.25,0.66797 -0.97656,1.14453 -2.0625,1.47656 -1.11328,0.33594 -2.69922,0.53125 -4.64844,0.61328 -0.80859,0.83594 -2.39843,1.3086 -4.48828,1.5586 -2.11328,0.2539 -4.875,0.2539 -7.91015,0.14062 -3.45313,1.0586 -6.90625,1.5586 -10.36329,1.5586 -3.48046,0 -6.93359,-0.5 -10.390615,-1.5586 -2.61719,0.14063 -4.92969,0.0547 -6.96094,-0.25 -2.03515,-0.27734 -3.78906,-0.7539 -5.29297,-1.44922 -1.61718,-0.11328 -3.14843,-0.30468 -4.32031,-0.61328 -1.14062,-0.33203 -2.00391,-0.78125 -2.42187,-1.47656 -1.19922,-0.082 -2.3125,-0.19531 -3.23047,-0.35937 -0.78125,-0.16797 -1.44922,-0.36329 -1.89453,-0.64063 0.16796,1.08203 1.16796,2.33594 2.98046,3.62109 1.3086,2.53516 3.70313,4.39844 7.85547,3.75782 2.11719,3.48437 5.625,4.67968 10.75391,2.75781 3.14844,2.42578 7.437495,3.00781 12.894525,1.61719 5.46094,1.39062 9.75,0.80859 12.89844,-1.61719 5.125,1.92187 8.63672,0.72656 10.78125,-2.75781 4.12109,0.64062 6.51953,-1.22266 7.82812,-3.75782 1.78125,-1.2539 2.78516,-2.48046 2.98047,-3.5664 -0.61328,0.30469 -1.33984,0.52734 -2.17578,0.66797 -0.83594,0.16797 -1.75391,0.25 -2.8125,0.27734"
     fill-opacity="1"
     fill-rule="nonzero"
     id="path66" />
  <path
     fill="#471257"
     d="m 98.195315,45.573739 c 0.0273,-0.21875 0.0273,-0.41797 0.0547,-0.60938 -6.09766,-5.59765 -11.53125,-12.0625 -16.23829,-19.41797 -0.11328,0.28125 -0.25,0.5586 -0.39062,0.83594 -0.27734,0.11328 -0.55859,0.22656 -0.83594,0.30859 4.95703,8.27344 10.83594,14.40235 17.41016,18.88282"
     fill-opacity="1"
     fill-rule="nonzero"
     id="path67" />
  <path
     fill="#471257"
     d="m 100.8125,39.421389 c -4.457035,-6.60156 -8.523435,-13.76172 -11.726565,-22.11718 -0.25,0.27734 -0.47265,0.55468 -0.69531,0.83203 -0.22266,0.28125 -0.44531,0.55859 -0.69922,0.83593 3.78906,8.2461 8.2461,14.71094 12.898435,20.69922 0.0859,-0.0859 0.16797,-0.16797 0.22266,-0.25"
     fill-opacity="1"
     fill-rule="nonzero"
     id="path68" />
  <path
     fill="#471257"
     d="m 105.41015,36.327639 c -2.20312,-7.80078 -4.03906,-15.98828 -5.15234,-24.84765 -0.335935,0.36328 -0.640625,0.69922 -0.976555,1.03125 -0.39063,-0.14063 -0.78125,-0.25 -1.17188,-0.39063 1.72656,8.88672 4.070305,16.87891 6.742185,24.42969 0.16797,-0.082 0.36328,-0.14063 0.55859,-0.22266"
     fill-opacity="1"
     fill-rule="nonzero"
     id="path69" />
</svg>
